Patient4_TMGait_0pt5_01_left_19_GRF.mot
version=1
nRows=26
nColumns=19
inDegrees=no
endheader
time	F1x	F1y	F1z	M1x	M1y	M1z	F2x	F2y	F2z	M2x	M2y	M2z	EC1x	EC1y	EC1z	EC2x	EC2y	EC2z
25.45	-1.0098	-14.8776	-1.035	3.2696	0.96568	-28.0887	-21.1121	713.3455	-49.6541	262.5073	51.5599	652.0284	-0.0592	0.0182	-0.0073	-0.0462	0.0165	0.9585
25.4629	-0.70762	-9.0901	-0.67287	1.8801	0.61484	-17.8971	-21.7812	720.9341	-52.7459	265.2516	53.7439	656.0125	-0.0592	0.0182	-0.0073	-0.0462	0.0165	0.9585
25.4759	-0.43011	-4.1976	-0.39173	0.70271	0.34298	-9.3182	-22.2579	730.8678	-55.5526	268.7661	55.6378	661.6803	-0.0592	0.0182	-0.0073	-0.0462	0.0165	0.9585
25.4888	-0.212	-0.46485	-0.19003	-0.20223	0.15175	-2.8105	-22.4902	742.7044	-57.8293	272.9172	57.0675	668.7277	-0.0592	0.0182	-0.0073	-0.0462	0.0165	0.9585
25.5017	-0.05893	2.1312	-0.055958	-0.84149	0.030293	1.6779	-22.4456	755.6459	-59.4273	277.4638	57.9192	676.514	-0.0592	0.0182	-0.0073	-0.0462	0.0165	0.9585
25.5146	0.037235	3.7489	0.027497	-1.2524	-0.038189	4.44	-22.0981	768.6744	-60.2772	282.0833	58.1273	684.1899	-0.0592	0.0182	-0.0073	-0.0462	0.0165	0.9585
25.5276	0.066724	4.6021	0.077294	-1.4801	-0.077121	5.8777	-21.4182	780.6903	-60.3673	286.4067	57.6607	690.8295	-0.0592	0.0182	-0.0073	-0.0462	0.0165	0.9585
25.5405	0.045758	4.8828	0.10781	-1.5599	-0.10186	6.3473	-20.387	790.6452	-59.7676	290.0591	56.5549	695.5574	-0.0592	0.0182	-0.0073	-0.0462	0.0165	0.9585
25.5534	-0.035649	4.7362	0.12749	-1.5148	-0.13179	6.1531	-19.0109	797.6114	-58.6208	292.6871	54.9113	697.6105	-0.0592	0.0182	-0.0073	-0.0462	0.0165	0.9585
25.5664	-0.15851	4.236	0.14026	-1.3525	-0.17226	5.4727	-17.3124	800.8593	-57.1086	293.9962	52.8686	696.4034	-0.0592	0.0182	-0.0073	-0.0462	0.0165	0.9585
25.5793	-0.3252	3.4072	0.15538	-1.0688	-0.23494	4.4208	-15.3255	799.9287	-55.4158	293.7878	50.5749	691.5962	-0.0592	0.0182	-0.0073	-0.0462	0.0165	0.9585
25.5922	-0.50725	2.2266	0.17143	-0.65131	-0.31188	3.0234	-13.073	794.6608	-53.707	291.9806	48.1595	683.0981	-0.0592	0.0182	-0.0073	-0.0462	0.0165	0.9585
25.6051	-0.66626	0.67525	0.19506	-0.091067	-0.39479	1.2899	-10.5808	785.233	-52.1221	288.625	45.7375	671.0945	-0.0592	0.0182	-0.0073	-0.0462	0.0165	0.9585
25.6181	-0.75466	-1.2185	0.21427	0.603	-0.45332	-0.74039	-7.8569	772.1499	-50.7714	283.9065	43.4043	656.0197	-0.0592	0.0182	-0.0073	-0.0462	0.0165	0.9585
25.631	-0.69006	-3.3483	0.22153	1.3893	-0.44893	-2.9624	-4.9149	756.2745	-49.7303	278.1551	41.2358	638.601	-0.0592	0.0182	-0.0073	-0.0462	0.0165	0.9585
25.6439	-0.37546	-5.4171	0.19363	2.157	-0.32095	-5.0794	-1.7608	738.7919	-49.0303	271.8318	39.2787	619.8187	-0.0592	0.0182	-0.0073	-0.0462	0.0165	0.9585
25.6569	0.32621	-6.9007	0.11314	2.7083	0.001453	-6.5955	1.5964	721.1057	-48.6565	265.4857	37.5406	600.8218	-0.0592	0.0182	-0.0073	-0.0462	0.0165	0.9585
25.6698	1.553	-6.9514	-0.051044	2.7236	0.60205	-6.6856	5.1404	704.6952	-48.5505	259.6924	35.9887	582.8151	-0.0592	0.0182	-0.0073	-0.0462	0.0165	0.9585
25.6827	3.4478	-4.3635	-0.32559	1.7467	1.5621	-4.1694	8.86	690.9122	-48.6379	254.9765	34.5727	566.8907	-0.0592	0.0182	-0.0073	-0.0462	0.0165	0.9585
25.6956	6.0867	2.4257	-0.74157	-0.81489	2.9442	2.5027	12.7217	680.7828	-48.8344	251.7321	33.2322	553.894	-0.0592	0.0182	-0.0073	-0.0462	0.0165	0.9585
25.7086	9.4082	15.23	-1.3193	-5.6487	4.7451	15.1343	16.6842	674.8172	-49.0511	250.1485	31.9009	544.2645	-0.0592	0.0182	-0.0073	-0.0462	0.0165	0.9585
25.7215	13.1267	35.8639	-2.0547	-13.4424	6.8453	35.5292	20.6659	672.8988	-49.1975	250.164	30.5248	537.9717	-0.0592	0.0182	-0.0073	-0.0462	0.0165	0.9585
25.7344	16.5986	65.6476	-2.9094	-24.6966	8.9556	65.0171	24.5506	674.2022	-49.1658	251.4374	29.0496	534.4439	-0.0592	0.0182	-0.0073	-0.0462	0.0165	0.9585
25.7474	18.7138	104.6431	-3.7627	-39.4364	10.5312	103.7027	28.1441	677.2202	-48.8313	253.358	27.4404	532.626	-0.0592	0.0182	-0.0073	-0.0462	0.0165	0.9585
25.7603	17.9736	150.7998	-4.3954	-56.885	10.7929	149.6213	31.2154	679.8828	-48.0663	255.0981	25.682	531.0377	-0.0592	0.0182	-0.0073	-0.0462	0.0165	0.9585
25.7732	13.555	199.6046	-4.4628	-75.3191	9.0919	198.3532	33.5433	679.8872	-46.7769	255.7468	23.7903	528.0034	-0.0592	0.0182	-0.0073	-0.0462	0.0165	0.9585
